# xmcd
#
# Track frame offsets:
#	150
#	19908
#	54848
#	80529
#	97203
#	114225
#	127608
#	144989
#	166118
#	191966
#	214596
#
# Disc length: 2996 seconds
#
# Revision: 0
# Processed by: cddbd v1.5.2PL0 Copyright (c) Steve Scherf et al.
# Submitted via: audiograbber 1.83.01
#
DISCID=8a0bb20b
DTITLE=Jen Cloher - Jen Cloher
DYEAR=2017
DGENRE=Folk
TTITLE0=Forgot Myself
TTITLE1=Analysis Paralysis
TTITLE2=Regional Echo
TTITLE3=Sensory Memory
TTITLE4=Shoegazers
TTITLE5=Strong Woman
TTITLE6=Kinda Biblical
TTITLE7=Great Australian Bite
TTITLE8=Loose Magic
TTITLE9=Waiting In The Wings
TTITLE10=Dark Art
EXTD=
EXTT0=
EXTT1=
EXTT2=
EXTT3=
EXTT4=
EXTT5=
EXTT6=
EXTT7=
EXTT8=
EXTT9=
EXTT10=
PLAYORDER=
